<svg xmlns="http://www.w3.org/2000/svg" version="1.1" xmlns:xlink="http://www.w3.org/1999/xlink" xmlns:svgjs="http://svgjs.dev/svgjs" width="1000" height="328" viewBox="0 0 1000 328"><g transform="matrix(1,0,0,1,-0.6060606060606233,-0.3898242163664918)"><svg viewBox="0 0 396 130" data-background-color="#ffffff" preserveAspectRatio="xMidYMid meet" height="328" width="1000" xmlns="http://www.w3.org/2000/svg" xmlns:xlink="http://www.w3.org/1999/xlink"><defs></defs><g id="tight-bounds" transform="matrix(1,0,0,1,0.2400000000000091,0.15450350038915417)"><svg viewBox="0 0 395.52 129.69099299922172" height="129.69099299922172" width="395.52"><g><svg viewBox="0 0 552.920138331508 181.30249238845144" height="129.69099299922172" width="395.52"><g><rect width="7.5102321617772185" height="181.30249238845144" x="130.229612552513" y="0" fill="#77d4fc" opacity="1" stroke-width="0" stroke="transparent" fill-opacity="1" class="rect-o-0" data-fill-palette-color="primary" rx="1%" id="o-0" data-palette-color="#77d4fc"></rect></g><g transform="matrix(1,0,0,1,157.4001383315081,0.4510012248468911)"><svg viewBox="0 0 395.52 180.40048993875766" height="180.40048993875766" width="395.52"><g><svg viewBox="0 0 395.52 180.40048993875766" height="180.40048993875766" width="395.52"><g><svg viewBox="0 0 395.52 180.40048993875766" height="180.40048993875766" width="395.52"><g transform="matrix(1,0,0,1,0,0)"><svg width="395.52" viewBox="3.550002098083496 -35.29999923706055 171.4500274658203 74.80000305175781" height="180.40048993875766" data-palette-color="#77d4fc"><svg></svg><svg></svg><g class="undefined-text-0" data-fill-palette-color="primary" id="text-0"><path d="M5.8 0v-35.3h21.45v1.65h-19.7v15h17.75v1.7h-17.75v15.3h20.4v1.65z" data-fill-palette-color="primary" fill="#77d4fc" opacity="1"></path><path d="M32.15 23.4v13.35c-0.633 0.4-1.367 0.767-2.2 1.1-0.833 0.333-1.717 0.623-2.65 0.87-0.933 0.253-1.883 0.447-2.85 0.58-0.967 0.133-1.9 0.2-2.8 0.2v0c-2.767 0-5.267-0.46-7.5-1.38-2.233-0.913-4.14-2.18-5.72-3.8-1.587-1.613-2.797-3.503-3.63-5.67-0.833-2.167-1.25-4.483-1.25-6.95v0c0-2.633 0.467-5.06 1.4-7.28 0.933-2.213 2.227-4.147 3.88-5.8 1.647-1.647 3.563-2.93 5.75-3.85 2.18-0.913 4.503-1.37 6.97-1.37v0c1.8 0 3.5 0.227 5.1 0.68 1.6 0.447 3.083 1.07 4.45 1.87v0l-0.7 1.55c-0.8-0.467-1.683-0.883-2.65-1.25-0.967-0.367-1.957-0.65-2.97-0.85-1.02-0.2-2.03-0.3-3.03-0.3v0c-2.333 0-4.49 0.423-6.47 1.27-1.987 0.853-3.73 2.03-5.23 3.53-1.5 1.5-2.667 3.25-3.5 5.25-0.833 2-1.25 4.15-1.25 6.45v0c0 2.267 0.383 4.383 1.15 6.35 0.767 1.967 1.867 3.69 3.3 5.17 1.433 1.487 3.15 2.637 5.15 3.45 2 0.82 4.233 1.23 6.7 1.23v0c1.433 0 2.967-0.177 4.6-0.53 1.633-0.347 3.033-0.87 4.2-1.57v0-10.6h-8.25v-1.7zM42.7 3.8h7.65c1.167 0 2.373 0.177 3.62 0.53 1.253 0.347 2.413 0.91 3.48 1.69 1.067 0.787 1.933 1.797 2.6 3.03 0.667 1.233 1 2.717 1 4.45v0c0 1.3-0.2 2.557-0.6 3.77-0.4 1.22-1.033 2.313-1.9 3.28-0.867 0.967-2 1.74-3.4 2.32-1.4 0.587-3.133 0.88-5.2 0.88v0h-5.5v15.35h-1.75zM44.45 22.05h5.35c1.9 0 3.457-0.257 4.67-0.77 1.22-0.52 2.18-1.197 2.88-2.03 0.7-0.833 1.2-1.743 1.5-2.73 0.3-0.98 0.45-1.953 0.45-2.92v0c0-1.167-0.217-2.243-0.65-3.23-0.433-0.98-1.04-1.837-1.82-2.57-0.787-0.733-1.713-1.307-2.78-1.72-1.067-0.42-2.233-0.63-3.5-0.63v0h-6.1zM52.6 22.7l2.05-0.05 9.95 16.45h-2zM70.5 21.5v0c0-2.5 0.467-4.843 1.4-7.03 0.933-2.18 2.227-4.103 3.88-5.77 1.647-1.667 3.563-2.967 5.75-3.9 2.18-0.933 4.503-1.4 6.97-1.4v0c2.467 0 4.793 0.477 6.98 1.43 2.18 0.947 4.103 2.243 5.77 3.89 1.667 1.653 2.977 3.57 3.93 5.75 0.947 2.187 1.42 4.53 1.42 7.03v0c0 2.467-0.473 4.79-1.42 6.97-0.953 2.187-2.253 4.103-3.9 5.75-1.653 1.653-3.57 2.947-5.75 3.88-2.187 0.933-4.53 1.4-7.03 1.4v0c-2.5 0-4.833-0.45-7-1.35-2.167-0.9-4.073-2.16-5.72-3.78-1.653-1.613-2.947-3.513-3.88-5.7-0.933-2.18-1.4-4.57-1.4-7.17zM72.25 21.55v0c0 2.233 0.417 4.34 1.25 6.32 0.833 1.987 1.993 3.72 3.48 5.2 1.48 1.487 3.203 2.653 5.17 3.5 1.967 0.853 4.05 1.28 6.25 1.28v0c2.267 0 4.393-0.427 6.38-1.28 1.98-0.847 3.72-2.013 5.22-3.5 1.5-1.48 2.683-3.213 3.55-5.2 0.867-1.98 1.3-4.103 1.3-6.37v0c0-2.233-0.433-4.343-1.3-6.33-0.867-1.98-2.04-3.73-3.52-5.25-1.487-1.513-3.22-2.703-5.2-3.57-1.987-0.867-4.097-1.3-6.33-1.3v0c-2.3 0-4.44 0.44-6.42 1.32-1.987 0.887-3.713 2.097-5.18 3.63-1.467 1.533-2.607 3.29-3.42 5.27-0.82 1.987-1.23 4.08-1.23 6.28zM140.2 35.35l0.9 1.5c-0.833 0.467-1.74 0.907-2.72 1.32-0.987 0.42-2.053 0.747-3.2 0.98-1.153 0.233-2.397 0.35-3.73 0.35v0c-2.667 0-5.1-0.477-7.3-1.43-2.2-0.947-4.083-2.237-5.65-3.87-1.567-1.633-2.767-3.527-3.6-5.68-0.833-2.147-1.25-4.437-1.25-6.87v0c0-2.567 0.45-4.96 1.35-7.18 0.9-2.213 2.167-4.147 3.8-5.8 1.633-1.647 3.533-2.937 5.7-3.87 2.167-0.933 4.5-1.4 7-1.4v0c1.8 0 3.5 0.233 5.1 0.7 1.6 0.467 3.067 1.1 4.4 1.9v0l-0.8 1.6c-1.2-0.767-2.54-1.383-4.02-1.85-1.487-0.467-3.03-0.7-4.63-0.7v0c-2.2 0-4.273 0.427-6.22 1.28-1.953 0.847-3.67 2.027-5.15 3.54-1.487 1.52-2.647 3.28-3.48 5.28-0.833 2-1.25 4.167-1.25 6.5v0c0 2.167 0.377 4.233 1.13 6.2 0.747 1.967 1.82 3.7 3.22 5.2 1.4 1.5 3.093 2.673 5.08 3.52 1.98 0.853 4.187 1.28 6.62 1.28v0c1.7 0 3.277-0.233 4.73-0.7 1.447-0.467 2.77-1.067 3.97-1.8zM160.1 39.1v-12.85l-13.2-22.45h2.1l12.35 21-0.65 0.05 12.25-21.05h2.05l-13.15 22.45v12.85z" data-fill-palette-color="primary" fill="#77d4fc" opacity="1"></path></g></svg></g></svg></g></svg></g></svg></g><g transform="matrix(1,0,0,1,0,0.4510012248468911)"><svg viewBox="0 0 110.56931893529516 180.40048993875766" height="180.40048993875766" width="110.56931893529516"><g><svg xmlns="http://www.w3.org/2000/svg" xmlns:xlink="http://www.w3.org/1999/xlink" version="1.1" x="0" y="0" viewBox="70.5 20.37551498413086 159.00396728515625 259.4245300292969" enable-background="new 0 0 300 300" xml:space="preserve" height="180.40048993875766" width="110.56931893529516" class="icon-icon-0" data-fill-palette-color="accent" id="icon-0"><path d="M221.4 105.8c0-0.1 0-0.1 0-0.1 0-0.2-0.1-0.4-0.1-0.6 0-0.1 0-0.2-0.1-0.3-0.1-0.2-0.1-0.4-0.2-0.6 0-0.1-0.1-0.2-0.1-0.3-0.1-0.2-0.2-0.4-0.4-0.6-0.1-0.1-0.1-0.2-0.2-0.3-0.1-0.2-0.3-0.3-0.5-0.5-0.1-0.1-0.1-0.1-0.2-0.2 0 0 0 0 0 0-0.2-0.2-0.4-0.3-0.6-0.4-0.1 0-0.1-0.1-0.2-0.1-0.2-0.1-0.4-0.2-0.6-0.3-0.1 0-0.2-0.1-0.3-0.1 0 0 0 0-0.1 0l-16.9-4.6 6.6-49.6 0.3-2.4-0.2-0.2c0.1-12.1-8.8-22.4-21.2-24-11.9-1.6-22.7 5.5-26.4 16.6h-0.4l-4.2 31.3c-1.7-0.5-3.5-0.8-5.3-0.8-8.9 0-16.5 6.1-18.5 14.2l-0.5 0.1v0.3c-8.5 2.6-15.9 8.3-20.6 16.1-0.1 0.2-0.3 0.4-0.4 0.7L79.5 102c-2.2-0.1-4.2 1.2-5 3.2-0.2 0.5-0.3 1.1-0.3 1.7 0 0 0 0.1 0 0.1l-3.7 156c0 2.1 1.2 4 3.1 4.7l28.6 11.7c0 0 0 0 0.1 0 0.2 0.1 0.4 0.1 0.6 0.2 0.1 0 0.2 0.1 0.3 0.1 0.2 0 0.5 0.1 0.7 0.1 0.1 0 0.1 0 0.2 0 0.1 0 0.2 0 0.3 0 0.1 0 0.3 0 0.4 0l0 0c0 0 0 0 0 0L225.2 263c2.6-0.4 4.4-2.6 4.3-5.2L221.4 105.8zM168.8 43.4l0.1-0.6c1.2-8.2 8.1-13.5 16.2-12.5 7.8 1 13.3 7.8 12.4 15.5l-7.7 58.4-29.5 3.5L168.8 43.4zM150 77.5c1.4 0 2.8 0.3 4 0.9l-0.6 4.3c-3.4-1.2-6.9-1.9-10.5-2C144.5 78.7 147.1 77.5 150 77.5zM136.9 91.1l0.3-0.1c1.7-0.3 2.9-0.3 4.2-0.3 3.7 0 7.3 0.8 10.6 2.3l-2.1 15.9-34.3 4c0 0 0-0.1 0-0.1 0-0.2 0.1-0.3 0.1-0.5 0-0.2 0-0.4 0-0.7 0-0.3 0.1-0.5 0.1-0.8l0.1-0.6v-0.2c0.8-1.2 1-2.4 1.4-3.6 0.3-0.4 0.5-0.9 0.6-1.4 0.3-0.5 0.6-1 1-1.6C122.9 96.9 129.4 92.4 136.9 91.1zM84 112.7l17.1 2.5-0.3 0.2c-0.1 0.1-0.1 0.1-0.2 0.2-0.2 0.1-0.3 0.3-0.4 0.4-0.1 0.1-0.2 0.2-0.2 0.3-0.1 0.1-0.2 0.3-0.3 0.4-0.1 0.1-0.1 0.3-0.2 0.4-0.1 0.2-0.1 0.3-0.2 0.5 0 0.1-0.1 0.3-0.1 0.4 0 0.2-0.1 0.3-0.1 0.5 0 0.2-0.1 0.3-0.1 0.5 0 0.1-0.1 0.2-0.1 0.2v148.2l-18.5-7.6L84 112.7zM109 269.2V123.7l102.7-12.1 7.5 142.1L109 269.2z" fill="#4b91f1" data-fill-palette-color="accent"></path></svg></g></svg></g></svg></g></svg><rect width="395.52" height="129.69099299922172" fill="none" stroke="none" visibility="hidden"></rect></g></svg></g></svg>